%TF.GenerationSoftware,KiCad,Pcbnew,9.0.6*%
%TF.CreationDate,2026-03-31T10:45:14+01:00*%
%TF.ProjectId,UntitledNeve NKK JB switches,556e7469-746c-4656-944e-657665204e4b,rev?*%
%TF.SameCoordinates,Original*%
%TF.FileFunction,Copper,L2,Bot*%
%TF.FilePolarity,Positive*%
%FSLAX46Y46*%
G04 Gerber Fmt 4.6, Leading zero omitted, Abs format (unit mm)*
G04 Created by KiCad (PCBNEW 9.0.6) date 2026-03-31 10:45:14*
%MOMM*%
%LPD*%
G01*
G04 APERTURE LIST*
G04 Aperture macros list*
%AMRoundRect*
0 Rectangle with rounded corners*
0 $1 Rounding radius*
0 $2 $3 $4 $5 $6 $7 $8 $9 X,Y pos of 4 corners*
0 Add a 4 corners polygon primitive as box body*
4,1,4,$2,$3,$4,$5,$6,$7,$8,$9,$2,$3,0*
0 Add four circle primitives for the rounded corners*
1,1,$1+$1,$2,$3*
1,1,$1+$1,$4,$5*
1,1,$1+$1,$6,$7*
1,1,$1+$1,$8,$9*
0 Add four rect primitives between the rounded corners*
20,1,$1+$1,$2,$3,$4,$5,0*
20,1,$1+$1,$4,$5,$6,$7,0*
20,1,$1+$1,$6,$7,$8,$9,0*
20,1,$1+$1,$8,$9,$2,$3,0*%
G04 Aperture macros list end*
%TA.AperFunction,ComponentPad*%
%ADD10RoundRect,0.250000X-0.625000X0.350000X-0.625000X-0.350000X0.625000X-0.350000X0.625000X0.350000X0*%
%TD*%
%TA.AperFunction,ComponentPad*%
%ADD11O,1.750000X1.200000*%
%TD*%
%TA.AperFunction,ComponentPad*%
%ADD12RoundRect,0.225000X0.775000X0.525000X-0.775000X0.525000X-0.775000X-0.525000X0.775000X-0.525000X0*%
%TD*%
%TA.AperFunction,Conductor*%
%ADD13C,1.000000*%
%TD*%
G04 APERTURE END LIST*
D10*
%TO.P,H1,1,Pin_1*%
%TO.N,/LAMP_8V*%
X107897082Y-98854875D03*
D11*
%TO.P,H1,2,Pin_2*%
%TO.N,Net-(H1-Pin_2)*%
X107897082Y-100854875D03*
%TO.P,H1,3,Pin_3*%
%TO.N,Net-(H1-Pin_3)*%
X107897082Y-102854875D03*
%TO.P,H1,4,Pin_4*%
%TO.N,Net-(H1-Pin_4)*%
X107897082Y-104854875D03*
%TO.P,H1,5,Pin_5*%
%TO.N,Net-(H1-Pin_5)*%
X107897082Y-106854875D03*
%TO.P,H1,6,Pin_6*%
%TO.N,/SW_0VL*%
X107897082Y-108854875D03*
%TO.P,H1,7,Pin_7*%
%TO.N,Net-(H1-Pin_7)*%
X107897082Y-110854875D03*
%TO.P,H1,8,Pin_8*%
%TO.N,Net-(H1-Pin_8)*%
X107897082Y-112854875D03*
%TO.P,H1,9,Pin_9*%
%TO.N,Net-(H1-Pin_9)*%
X107897082Y-114854875D03*
%TO.P,H1,10,Pin_10*%
%TO.N,Net-(H1-Pin_10)*%
X107897082Y-116854875D03*
%TD*%
D12*
%TO.P,SW_PFL1,+*%
%TO.N,Net-(R3-Pad2)*%
X100000000Y-94920000D03*
%TO.P,SW_PFL1,-*%
%TO.N,Net-(H1-Pin_4)*%
X100000000Y-105080000D03*
%TO.P,SW_PFL1,1*%
%TO.N,Net-(H1-Pin_9)*%
X97460000Y-94920000D03*
%TO.P,SW_PFL1,2*%
X97460000Y-105080000D03*
%TO.P,SW_PFL1,3*%
%TO.N,/SW_0VL*%
X102540000Y-94920000D03*
%TO.P,SW_PFL1,4*%
X102540000Y-105080000D03*
%TD*%
%TO.P,SW_CUT1,+*%
%TO.N,Net-(R1-Pad2)*%
X115500000Y-110420000D03*
%TO.P,SW_CUT1,-*%
%TO.N,Net-(H1-Pin_2)*%
X115500000Y-120580000D03*
%TO.P,SW_CUT1,1*%
%TO.N,Net-(H1-Pin_7)*%
X112960000Y-110420000D03*
%TO.P,SW_CUT1,2*%
X112960000Y-120580000D03*
%TO.P,SW_CUT1,3*%
%TO.N,/SW_0VL*%
X118040000Y-110420000D03*
%TO.P,SW_CUT1,4*%
X118040000Y-120580000D03*
%TD*%
%TO.P,SW_AFL1,+*%
%TO.N,Net-(R4-Pad2)*%
X100000000Y-110420000D03*
%TO.P,SW_AFL1,-*%
%TO.N,Net-(H1-Pin_5)*%
X100000000Y-120580000D03*
%TO.P,SW_AFL1,1*%
%TO.N,Net-(H1-Pin_10)*%
X97460000Y-110420000D03*
%TO.P,SW_AFL1,2*%
X97460000Y-120580000D03*
%TO.P,SW_AFL1,3*%
%TO.N,/SW_0VL*%
X102540000Y-110420000D03*
%TO.P,SW_AFL1,4*%
X102540000Y-120580000D03*
%TD*%
%TO.P,SW_ACC1,4*%
%TO.N,/SW_0VL*%
X118040000Y-105080000D03*
%TO.P,SW_ACC1,3*%
X118040000Y-94920000D03*
%TO.P,SW_ACC1,2*%
%TO.N,Net-(H1-Pin_8)*%
X112960000Y-105080000D03*
%TO.P,SW_ACC1,1*%
X112960000Y-94920000D03*
%TO.P,SW_ACC1,-*%
%TO.N,Net-(H1-Pin_3)*%
X115500000Y-105080000D03*
%TO.P,SW_ACC1,+*%
%TO.N,Net-(R2-Pad2)*%
X115500000Y-94920000D03*
%TD*%
D13*
%TO.N,Net-(H1-Pin_2)*%
X107897082Y-100854875D02*
X116430671Y-100854875D01*
X116447546Y-100838000D02*
X120396000Y-100838000D01*
X120396000Y-100838000D02*
X121000000Y-101442000D01*
X116430671Y-100854875D02*
X116447546Y-100838000D01*
X121000000Y-101442000D02*
X121000000Y-121570000D01*
X121000000Y-121570000D02*
X119380000Y-123190000D01*
X119380000Y-123190000D02*
X119380000Y-123444000D01*
X117614000Y-123444000D02*
X115500000Y-121330000D01*
X119380000Y-123444000D02*
X117614000Y-123444000D01*
X115500000Y-121330000D02*
X115500000Y-120580000D01*
%TO.N,Net-(H1-Pin_4)*%
X106727125Y-104854875D02*
X104140000Y-107442000D01*
X104140000Y-107442000D02*
X100584000Y-107442000D01*
X100584000Y-107442000D02*
X100076000Y-106934000D01*
X107897082Y-104854875D02*
X106727125Y-104854875D01*
X100076000Y-106934000D02*
X100076000Y-105308000D01*
X100076000Y-105308000D02*
X100000000Y-105232000D01*
X100000000Y-105232000D02*
X100000000Y-105080000D01*
%TO.N,Net-(H1-Pin_5)*%
X107897082Y-106854875D02*
X106572082Y-106854875D01*
X106572082Y-106854875D02*
X104902000Y-108524957D01*
X104902000Y-108524957D02*
X104902000Y-114928000D01*
X104902000Y-114928000D02*
X100000000Y-119830000D01*
X100000000Y-119830000D02*
X100000000Y-120580000D01*
%TO.N,Net-(H1-Pin_3)*%
X112014000Y-106856901D02*
X112014000Y-107188000D01*
X108011974Y-102854875D02*
X112014000Y-106856901D01*
X107897082Y-102854875D02*
X108011974Y-102854875D01*
X112014000Y-107188000D02*
X113544000Y-107188000D01*
X113544000Y-107188000D02*
X115500000Y-105232000D01*
X115500000Y-105232000D02*
X115500000Y-105080000D01*
%TO.N,Net-(H1-Pin_7)*%
X107897082Y-110854875D02*
X112525125Y-110854875D01*
X112525125Y-110854875D02*
X112960000Y-110420000D01*
%TD*%
%TA.AperFunction,Conductor*%
%TO.N,/SW_0VL*%
G36*
X118290000Y-121829999D02*
G01*
X118863308Y-121829999D01*
X118863322Y-121829998D01*
X118962605Y-121819856D01*
X119023243Y-121799762D01*
X119093071Y-121797360D01*
X119153113Y-121833091D01*
X119184306Y-121895611D01*
X119176747Y-121965071D01*
X119149929Y-122005149D01*
X118747898Y-122407181D01*
X118686575Y-122440666D01*
X118660217Y-122443500D01*
X118079783Y-122443500D01*
X118012744Y-122423815D01*
X117992102Y-122407181D01*
X117626601Y-122041680D01*
X117593116Y-121980357D01*
X117598100Y-121910665D01*
X117639972Y-121854732D01*
X117705436Y-121830315D01*
X117714282Y-121829999D01*
X117790000Y-121829999D01*
X117790000Y-121013012D01*
X117847007Y-121045925D01*
X117974174Y-121080000D01*
X118105826Y-121080000D01*
X118232993Y-121045925D01*
X118290000Y-121013012D01*
X118290000Y-121829999D01*
G37*
%TD.AperFunction*%
%TA.AperFunction,Conductor*%
G36*
X119701472Y-90670695D02*
G01*
X119742813Y-90673016D01*
X120004723Y-90687724D01*
X120018526Y-90689280D01*
X120310699Y-90738923D01*
X120314525Y-90739573D01*
X120328082Y-90742667D01*
X120616588Y-90825784D01*
X120629712Y-90830377D01*
X120907090Y-90945270D01*
X120919612Y-90951299D01*
X121123870Y-91064189D01*
X121182392Y-91096533D01*
X121194166Y-91103931D01*
X121439036Y-91277675D01*
X121449904Y-91286343D01*
X121673762Y-91486396D01*
X121683595Y-91496228D01*
X121883666Y-91720107D01*
X121892332Y-91730976D01*
X122029971Y-91924959D01*
X122066064Y-91975826D01*
X122073463Y-91987600D01*
X122218696Y-92250381D01*
X122224729Y-92262909D01*
X122339622Y-92540286D01*
X122344215Y-92553411D01*
X122427333Y-92841918D01*
X122430427Y-92855475D01*
X122480718Y-93151465D01*
X122482275Y-93165284D01*
X122499305Y-93468550D01*
X122499500Y-93475502D01*
X122499500Y-121916518D01*
X122499305Y-121923471D01*
X122482275Y-122226716D01*
X122480718Y-122240534D01*
X122430427Y-122536524D01*
X122427333Y-122550081D01*
X122344214Y-122838590D01*
X122339621Y-122851714D01*
X122224731Y-123129086D01*
X122218698Y-123141615D01*
X122073466Y-123404391D01*
X122066068Y-123416165D01*
X121892331Y-123661025D01*
X121883661Y-123671897D01*
X121683595Y-123895771D01*
X121673762Y-123905603D01*
X121449904Y-124105656D01*
X121439032Y-124114327D01*
X121194166Y-124288068D01*
X121182392Y-124295466D01*
X120919619Y-124440696D01*
X120907090Y-124446729D01*
X120629712Y-124561622D01*
X120616588Y-124566215D01*
X120328082Y-124649333D01*
X120314525Y-124652427D01*
X120018535Y-124702718D01*
X120004717Y-124704275D01*
X119701490Y-124721304D01*
X119694539Y-124721499D01*
X119632108Y-124721499D01*
X119632104Y-124721499D01*
X119624498Y-124721500D01*
X119624497Y-124721499D01*
X119624496Y-124721500D01*
X95338354Y-124721500D01*
X95331400Y-124721305D01*
X95028159Y-124704272D01*
X95014341Y-124702715D01*
X94718350Y-124652421D01*
X94704794Y-124649327D01*
X94416294Y-124566210D01*
X94403168Y-124561617D01*
X94125785Y-124446718D01*
X94113257Y-124440684D01*
X93850493Y-124295457D01*
X93838719Y-124288059D01*
X93593856Y-124114318D01*
X93582994Y-124105656D01*
X93359120Y-123905588D01*
X93349290Y-123895757D01*
X93206377Y-123735836D01*
X93149232Y-123671889D01*
X93140568Y-123661026D01*
X93037205Y-123515348D01*
X92966826Y-123416157D01*
X92959428Y-123404383D01*
X92814198Y-123141608D01*
X92808165Y-123129079D01*
X92693275Y-122851707D01*
X92688682Y-122838582D01*
X92605566Y-122550078D01*
X92602473Y-122536529D01*
X92552179Y-122240521D01*
X92550625Y-122226722D01*
X92537107Y-121986015D01*
X92533562Y-121922878D01*
X92533367Y-121915926D01*
X92533367Y-104506647D01*
X95959500Y-104506647D01*
X95959500Y-105653337D01*
X95959501Y-105653355D01*
X95969650Y-105752707D01*
X95969651Y-105752710D01*
X96022996Y-105913694D01*
X96023001Y-105913705D01*
X96112029Y-106058040D01*
X96112032Y-106058044D01*
X96231955Y-106177967D01*
X96231959Y-106177970D01*
X96376294Y-106266998D01*
X96376297Y-106266999D01*
X96376303Y-106267003D01*
X96537292Y-106320349D01*
X96636655Y-106330500D01*
X98283344Y-106330499D01*
X98283352Y-106330498D01*
X98283355Y-106330498D01*
X98337760Y-106324940D01*
X98382708Y-106320349D01*
X98543697Y-106267003D01*
X98562932Y-106255138D01*
X98664903Y-106192242D01*
X98674804Y-106189532D01*
X98682812Y-106183110D01*
X98707931Y-106180467D01*
X98732295Y-106173801D01*
X98743937Y-106176680D01*
X98752299Y-106175801D01*
X98773843Y-106184077D01*
X98785761Y-106187025D01*
X98790541Y-106189431D01*
X98916303Y-106267003D01*
X98999138Y-106294451D01*
X99007261Y-106298541D01*
X99026399Y-106316442D01*
X99047949Y-106331362D01*
X99051511Y-106339930D01*
X99058288Y-106346269D01*
X99064710Y-106371676D01*
X99074772Y-106395878D01*
X99075500Y-106409296D01*
X99075500Y-107032541D01*
X99075500Y-107032543D01*
X99075499Y-107032543D01*
X99113947Y-107225829D01*
X99113950Y-107225839D01*
X99189364Y-107407907D01*
X99189371Y-107407920D01*
X99298859Y-107571780D01*
X99298860Y-107571781D01*
X99298861Y-107571782D01*
X99438218Y-107711139D01*
X99438219Y-107711139D01*
X99445286Y-107718206D01*
X99445285Y-107718206D01*
X99445288Y-107718208D01*
X99806860Y-108079781D01*
X99806861Y-108079782D01*
X99877128Y-108150049D01*
X99946219Y-108219140D01*
X100110080Y-108328628D01*
X100110086Y-108328632D01*
X100216745Y-108372811D01*
X100292164Y-108404051D01*
X100485454Y-108442499D01*
X100485457Y-108442500D01*
X100485459Y-108442500D01*
X100682540Y-108442500D01*
X103777500Y-108442500D01*
X103844539Y-108462185D01*
X103890294Y-108514989D01*
X103901500Y-108566500D01*
X103901500Y-109182760D01*
X103881815Y-109249799D01*
X103829011Y-109295554D01*
X103759853Y-109305498D01*
X103712403Y-109288299D01*
X103623486Y-109233454D01*
X103623481Y-109233452D01*
X103462606Y-109180144D01*
X103363322Y-109170000D01*
X102790000Y-109170000D01*
X102790000Y-109986988D01*
X102732993Y-109954075D01*
X102605826Y-109920000D01*
X102474174Y-109920000D01*
X102347007Y-109954075D01*
X102290000Y-109986988D01*
X102290000Y-109170000D01*
X101716692Y-109170000D01*
X101716676Y-109170001D01*
X101617392Y-109180144D01*
X101456518Y-109233452D01*
X101456513Y-109233454D01*
X101335573Y-109308052D01*
X101268181Y-109326492D01*
X101205379Y-109308052D01*
X101083699Y-109232998D01*
X101083694Y-109232996D01*
X100922709Y-109179651D01*
X100823346Y-109169500D01*
X99176662Y-109169500D01*
X99176644Y-109169501D01*
X99077292Y-109179650D01*
X99077289Y-109179651D01*
X98916305Y-109232996D01*
X98916300Y-109232998D01*
X98795097Y-109307758D01*
X98727704Y-109326198D01*
X98664903Y-109307758D01*
X98543699Y-109232998D01*
X98543694Y-109232996D01*
X98382709Y-109179651D01*
X98283346Y-109169500D01*
X96636662Y-109169500D01*
X96636644Y-109169501D01*
X96537292Y-109179650D01*
X96537289Y-109179651D01*
X96376305Y-109232996D01*
X96376294Y-109233001D01*
X96231959Y-109322029D01*
X96231955Y-109322032D01*
X96112032Y-109441955D01*
X96112029Y-109441959D01*
X96023001Y-109586294D01*
X96022996Y-109586305D01*
X95969651Y-109747290D01*
X95959500Y-109846647D01*
X95959500Y-110993337D01*
X95959501Y-110993355D01*
X95969650Y-111092707D01*
X95969651Y-111092710D01*
X96022996Y-111253694D01*
X96023001Y-111253705D01*
X96112029Y-111398040D01*
X96112032Y-111398044D01*
X96231955Y-111517967D01*
X96231959Y-111517970D01*
X96376294Y-111606998D01*
X96376297Y-111606999D01*
X96376303Y-111607003D01*
X96537292Y-111660349D01*
X96636655Y-111670500D01*
X98283344Y-111670499D01*
X98283352Y-111670498D01*
X98283355Y-111670498D01*
X98337760Y-111664940D01*
X98382708Y-111660349D01*
X98543697Y-111607003D01*
X98562932Y-111595138D01*
X98664903Y-111532242D01*
X98732295Y-111513801D01*
X98795097Y-111532242D01*
X98916294Y-111606998D01*
X98916297Y-111606999D01*
X98916303Y-111607003D01*
X99077292Y-111660349D01*
X99176655Y-111670500D01*
X100823344Y-111670499D01*
X100823352Y-111670498D01*
X100823355Y-111670498D01*
X100877760Y-111664940D01*
X100922708Y-111660349D01*
X101083697Y-111607003D01*
X101205379Y-111531947D01*
X101272771Y-111513507D01*
X101335574Y-111531948D01*
X101456511Y-111606544D01*
X101456518Y-111606547D01*
X101617393Y-111659855D01*
X101716683Y-111669999D01*
X102289999Y-111669999D01*
X102290000Y-111669998D01*
X102290000Y-110853012D01*
X102347007Y-110885925D01*
X102474174Y-110920000D01*
X102605826Y-110920000D01*
X102732993Y-110885925D01*
X102790000Y-110853012D01*
X102790000Y-111669999D01*
X103363308Y-111669999D01*
X103363322Y-111669998D01*
X103462607Y-111659855D01*
X103623481Y-111606547D01*
X103623492Y-111606542D01*
X103712403Y-111551701D01*
X103779795Y-111533260D01*
X103846459Y-111554182D01*
X103891228Y-111607824D01*
X103901500Y-111657239D01*
X103901500Y-114462217D01*
X103881815Y-114529256D01*
X103865181Y-114549898D01*
X101473594Y-116941485D01*
X99362221Y-119052858D01*
X99362218Y-119052861D01*
X99296760Y-119118319D01*
X99222861Y-119192217D01*
X99160153Y-119286066D01*
X99106540Y-119330870D01*
X99083017Y-119338425D01*
X99077294Y-119339650D01*
X98916305Y-119392996D01*
X98916300Y-119392998D01*
X98795097Y-119467758D01*
X98727704Y-119486198D01*
X98664903Y-119467758D01*
X98543699Y-119392998D01*
X98543694Y-119392996D01*
X98382709Y-119339651D01*
X98283346Y-119329500D01*
X96636662Y-119329500D01*
X96636644Y-119329501D01*
X96537292Y-119339650D01*
X96537289Y-119339651D01*
X96376305Y-119392996D01*
X96376294Y-119393001D01*
X96231959Y-119482029D01*
X96231955Y-119482032D01*
X96112032Y-119601955D01*
X96112029Y-119601959D01*
X96023001Y-119746294D01*
X96022996Y-119746305D01*
X95969651Y-119907290D01*
X95959500Y-120006647D01*
X95959500Y-121153337D01*
X95959501Y-121153355D01*
X95969650Y-121252707D01*
X95969651Y-121252710D01*
X96022996Y-121413694D01*
X96023001Y-121413705D01*
X96112029Y-121558040D01*
X96112032Y-121558044D01*
X96231955Y-121677967D01*
X96231959Y-121677970D01*
X96376294Y-121766998D01*
X96376297Y-121766999D01*
X96376303Y-121767003D01*
X96537292Y-121820349D01*
X96636655Y-121830500D01*
X98283344Y-121830499D01*
X98283352Y-121830498D01*
X98283355Y-121830498D01*
X98337760Y-121824940D01*
X98382708Y-121820349D01*
X98543697Y-121767003D01*
X98562932Y-121755138D01*
X98664903Y-121692242D01*
X98732295Y-121673801D01*
X98795097Y-121692242D01*
X98916294Y-121766998D01*
X98916297Y-121766999D01*
X98916303Y-121767003D01*
X99077292Y-121820349D01*
X99176655Y-121830500D01*
X100823344Y-121830499D01*
X100823352Y-121830498D01*
X100823355Y-121830498D01*
X100877760Y-121824940D01*
X100922708Y-121820349D01*
X101083697Y-121767003D01*
X101205379Y-121691947D01*
X101272771Y-121673507D01*
X101335574Y-121691948D01*
X101456511Y-121766544D01*
X101456518Y-121766547D01*
X101617393Y-121819855D01*
X101716683Y-121829999D01*
X102289999Y-121829999D01*
X102290000Y-121829998D01*
X102290000Y-121013012D01*
X102347007Y-121045925D01*
X102474174Y-121080000D01*
X102605826Y-121080000D01*
X102732993Y-121045925D01*
X102790000Y-121013012D01*
X102790000Y-121829999D01*
X103363308Y-121829999D01*
X103363322Y-121829998D01*
X103462607Y-121819855D01*
X103623481Y-121766547D01*
X103623492Y-121766542D01*
X103767728Y-121677575D01*
X103767732Y-121677572D01*
X103887572Y-121557732D01*
X103887575Y-121557728D01*
X103976542Y-121413492D01*
X103976547Y-121413481D01*
X104029855Y-121252606D01*
X104039999Y-121153322D01*
X104040000Y-121153309D01*
X104040000Y-120830000D01*
X102973012Y-120830000D01*
X103005925Y-120772993D01*
X103040000Y-120645826D01*
X103040000Y-120514174D01*
X103005925Y-120387007D01*
X102973012Y-120330000D01*
X104039999Y-120330000D01*
X104039999Y-120006692D01*
X104039998Y-120006677D01*
X104029855Y-119907392D01*
X103976547Y-119746518D01*
X103976542Y-119746507D01*
X103887575Y-119602271D01*
X103887572Y-119602267D01*
X103767732Y-119482427D01*
X103767728Y-119482424D01*
X103623492Y-119393457D01*
X103623481Y-119393452D01*
X103462606Y-119340144D01*
X103363322Y-119330000D01*
X102790000Y-119330000D01*
X102790000Y-120146988D01*
X102732993Y-120114075D01*
X102605826Y-120080000D01*
X102474174Y-120080000D01*
X102347007Y-120114075D01*
X102290000Y-120146988D01*
X102290000Y-119365485D01*
X102171897Y-119322532D01*
X102160644Y-119314250D01*
X102147241Y-119310315D01*
X102133063Y-119293953D01*
X102115624Y-119281119D01*
X102110634Y-119268068D01*
X102101486Y-119257511D01*
X102098404Y-119236082D01*
X102090672Y-119215857D01*
X102093530Y-119202181D01*
X102091542Y-119188353D01*
X102100536Y-119168656D01*
X102104966Y-119147465D01*
X102114762Y-119137506D01*
X102120567Y-119124797D01*
X102126585Y-119118333D01*
X105539778Y-115705141D01*
X105539782Y-115705139D01*
X105679139Y-115565782D01*
X105788632Y-115401914D01*
X105864051Y-115219835D01*
X105876632Y-115156582D01*
X105902500Y-115026543D01*
X105902500Y-108990739D01*
X105922185Y-108923700D01*
X105938819Y-108903058D01*
X106131747Y-108710130D01*
X106336635Y-108505242D01*
X106397955Y-108471759D01*
X106467646Y-108476743D01*
X106523580Y-108518614D01*
X106547997Y-108584079D01*
X106547147Y-108603914D01*
X106547967Y-108604875D01*
X107616752Y-108604875D01*
X107597007Y-108624620D01*
X107547638Y-108710130D01*
X107522082Y-108805505D01*
X107522082Y-108904245D01*
X107547638Y-108999620D01*
X107597007Y-109085130D01*
X107616752Y-109104875D01*
X106547967Y-109104875D01*
X106549167Y-109112459D01*
X106602673Y-109277130D01*
X106681277Y-109431399D01*
X106783049Y-109571477D01*
X106905483Y-109693911D01*
X106988529Y-109754246D01*
X107031196Y-109809576D01*
X107037175Y-109879189D01*
X107004570Y-109940984D01*
X106988532Y-109954882D01*
X106905154Y-110015460D01*
X106782670Y-110137944D01*
X106782670Y-110137945D01*
X106782668Y-110137947D01*
X106759380Y-110170000D01*
X106680850Y-110278086D01*
X106602210Y-110432427D01*
X106548679Y-110597177D01*
X106521582Y-110768264D01*
X106521582Y-110941485D01*
X106545533Y-111092710D01*
X106548680Y-111112576D01*
X106602209Y-111277320D01*
X106680850Y-111431663D01*
X106782668Y-111571803D01*
X106905154Y-111694289D01*
X106905160Y-111694293D01*
X106988105Y-111754558D01*
X107030771Y-111809888D01*
X107036749Y-111879501D01*
X107004143Y-111941296D01*
X106988105Y-111955192D01*
X106905160Y-112015456D01*
X106905151Y-112015463D01*
X106782670Y-112137944D01*
X106782670Y-112137945D01*
X106782668Y-112137947D01*
X106738941Y-112198131D01*
X106680850Y-112278086D01*
X106602210Y-112432427D01*
X106548679Y-112597177D01*
X106521582Y-112768264D01*
X106521582Y-112941486D01*
X106548680Y-113112576D01*
X106602209Y-113277320D01*
X106680850Y-113431663D01*
X106782668Y-113571803D01*
X106905154Y-113694289D01*
X106905160Y-113694293D01*
X106988105Y-113754558D01*
X107030771Y-113809888D01*
X107036749Y-113879501D01*
X107004143Y-113941296D01*
X106988105Y-113955192D01*
X106905160Y-114015456D01*
X106905151Y-114015463D01*
X106782670Y-114137944D01*
X106782670Y-114137945D01*
X106782668Y-114137947D01*
X106738941Y-114198131D01*
X106680850Y-114278086D01*
X106602210Y-114432427D01*
X106548679Y-114597177D01*
X106521582Y-114768264D01*
X106521582Y-114941486D01*
X106548680Y-115112576D01*
X106602209Y-115277320D01*
X106680850Y-115431663D01*
X106782668Y-115571803D01*
X106905154Y-115694289D01*
X106922339Y-115706774D01*
X106988105Y-115754558D01*
X107030771Y-115809888D01*
X107036749Y-115879501D01*
X107004143Y-115941296D01*
X106988105Y-115955192D01*
X106905160Y-116015456D01*
X106905151Y-116015463D01*
X106782670Y-116137944D01*
X106782670Y-116137945D01*
X106782668Y-116137947D01*
X106738941Y-116198131D01*
X106680850Y-116278086D01*
X106602210Y-116432427D01*
X106548679Y-116597177D01*
X106521582Y-116768264D01*
X106521582Y-116941486D01*
X106548680Y-117112576D01*
X106602209Y-117277320D01*
X106680850Y-117431663D01*
X106782668Y-117571803D01*
X106905154Y-117694289D01*
X107045294Y-117796107D01*
X107199637Y-117874748D01*
X107364381Y-117928277D01*
X107535471Y-117955375D01*
X107535472Y-117955375D01*
X108258692Y-117955375D01*
X108258693Y-117955375D01*
X108429783Y-117928277D01*
X108594527Y-117874748D01*
X108748870Y-117796107D01*
X108889010Y-117694289D01*
X109011496Y-117571803D01*
X109113314Y-117431663D01*
X109191955Y-117277320D01*
X109245484Y-117112576D01*
X109272582Y-116941486D01*
X109272582Y-116768264D01*
X109245484Y-116597174D01*
X109191955Y-116432430D01*
X109113314Y-116278087D01*
X109011496Y-116137947D01*
X108889010Y-116015461D01*
X108806057Y-115955192D01*
X108763393Y-115899863D01*
X108757414Y-115830249D01*
X108790020Y-115768454D01*
X108806058Y-115754557D01*
X108889010Y-115694289D01*
X109011496Y-115571803D01*
X109113314Y-115431663D01*
X109191955Y-115277320D01*
X109245484Y-115112576D01*
X109272582Y-114941486D01*
X109272582Y-114768264D01*
X109245484Y-114597174D01*
X109191955Y-114432430D01*
X109113314Y-114278087D01*
X109011496Y-114137947D01*
X108889010Y-114015461D01*
X108806057Y-113955192D01*
X108763393Y-113899863D01*
X108757414Y-113830249D01*
X108790020Y-113768454D01*
X108806058Y-113754557D01*
X108889010Y-113694289D01*
X109011496Y-113571803D01*
X109113314Y-113431663D01*
X109191955Y-113277320D01*
X109245484Y-113112576D01*
X109272582Y-112941486D01*
X109272582Y-112768264D01*
X109245484Y-112597174D01*
X109191955Y-112432430D01*
X109113314Y-112278087D01*
X109011496Y-112137947D01*
X108940605Y-112067056D01*
X108907120Y-112005733D01*
X108912104Y-111936041D01*
X108953976Y-111880108D01*
X109019440Y-111855691D01*
X109028286Y-111855375D01*
X112623668Y-111855375D01*
X112671928Y-111845774D01*
X112726087Y-111835002D01*
X112816961Y-111816926D01*
X112870290Y-111794836D01*
X112999039Y-111741507D01*
X113074033Y-111691396D01*
X113140710Y-111670519D01*
X113142924Y-111670499D01*
X113783338Y-111670499D01*
X113783344Y-111670499D01*
X113783352Y-111670498D01*
X113783355Y-111670498D01*
X113837760Y-111664940D01*
X113882708Y-111660349D01*
X114043697Y-111607003D01*
X114062932Y-111595138D01*
X114164903Y-111532242D01*
X114232295Y-111513801D01*
X114295097Y-111532242D01*
X114416294Y-111606998D01*
X114416297Y-111606999D01*
X114416303Y-111607003D01*
X114577292Y-111660349D01*
X114676655Y-111670500D01*
X116323344Y-111670499D01*
X116323352Y-111670498D01*
X116323355Y-111670498D01*
X116377760Y-111664940D01*
X116422708Y-111660349D01*
X116583697Y-111607003D01*
X116705379Y-111531947D01*
X116772771Y-111513507D01*
X116835574Y-111531948D01*
X116956511Y-111606544D01*
X116956518Y-111606547D01*
X117117393Y-111659855D01*
X117216683Y-111669999D01*
X117789999Y-111669999D01*
X117790000Y-111669998D01*
X117790000Y-110853012D01*
X117847007Y-110885925D01*
X117974174Y-110920000D01*
X118105826Y-110920000D01*
X118232993Y-110885925D01*
X118290000Y-110853012D01*
X118290000Y-111669999D01*
X118863308Y-111669999D01*
X118863322Y-111669998D01*
X118962607Y-111659855D01*
X119123481Y-111606547D01*
X119123492Y-111606542D01*
X119267728Y-111517575D01*
X119267732Y-111517572D01*
X119387572Y-111397732D01*
X119387575Y-111397728D01*
X119476542Y-111253492D01*
X119476547Y-111253481D01*
X119529855Y-111092606D01*
X119539999Y-110993322D01*
X119540000Y-110993309D01*
X119540000Y-110670000D01*
X118473012Y-110670000D01*
X118505925Y-110612993D01*
X118540000Y-110485826D01*
X118540000Y-110354174D01*
X118505925Y-110227007D01*
X118473012Y-110170000D01*
X119539999Y-110170000D01*
X119539999Y-109846692D01*
X119539998Y-109846677D01*
X119529855Y-109747392D01*
X119476547Y-109586518D01*
X119476542Y-109586507D01*
X119387575Y-109442271D01*
X119387572Y-109442267D01*
X119267732Y-109322427D01*
X119267728Y-109322424D01*
X119123492Y-109233457D01*
X119123481Y-109233452D01*
X118962606Y-109180144D01*
X118863322Y-109170000D01*
X118290000Y-109170000D01*
X118290000Y-109986988D01*
X118232993Y-109954075D01*
X118105826Y-109920000D01*
X117974174Y-109920000D01*
X117847007Y-109954075D01*
X117790000Y-109986988D01*
X117790000Y-109170000D01*
X117216692Y-109170000D01*
X117216676Y-109170001D01*
X117117392Y-109180144D01*
X116956518Y-109233452D01*
X116956513Y-109233454D01*
X116835573Y-109308052D01*
X116768181Y-109326492D01*
X116705379Y-109308052D01*
X116583699Y-109232998D01*
X116583694Y-109232996D01*
X116422709Y-109179651D01*
X116323346Y-109169500D01*
X114676662Y-109169500D01*
X114676644Y-109169501D01*
X114577292Y-109179650D01*
X114577289Y-109179651D01*
X114416305Y-109232996D01*
X114416300Y-109232998D01*
X114295097Y-109307758D01*
X114227704Y-109326198D01*
X114164903Y-109307758D01*
X114043699Y-109232998D01*
X114043694Y-109232996D01*
X113882709Y-109179651D01*
X113783346Y-109169500D01*
X112136662Y-109169500D01*
X112136644Y-109169501D01*
X112037292Y-109179650D01*
X112037289Y-109179651D01*
X111876305Y-109232996D01*
X111876294Y-109233001D01*
X111731959Y-109322029D01*
X111731955Y-109322032D01*
X111612032Y-109441955D01*
X111612029Y-109441959D01*
X111523001Y-109586294D01*
X111522996Y-109586305D01*
X111469649Y-109747294D01*
X111468234Y-109753909D01*
X111465838Y-109753396D01*
X111443703Y-109807660D01*
X111386526Y-109847817D01*
X111346734Y-109854375D01*
X109027579Y-109854375D01*
X108960540Y-109834690D01*
X108914785Y-109781886D01*
X108904841Y-109712728D01*
X108933866Y-109649172D01*
X108939898Y-109642694D01*
X109011114Y-109571477D01*
X109112886Y-109431399D01*
X109191490Y-109277130D01*
X109244996Y-109112459D01*
X109246197Y-109104875D01*
X108177412Y-109104875D01*
X108197157Y-109085130D01*
X108246526Y-108999620D01*
X108272082Y-108904245D01*
X108272082Y-108805505D01*
X108246526Y-108710130D01*
X108197157Y-108624620D01*
X108177412Y-108604875D01*
X109246197Y-108604875D01*
X109246197Y-108604874D01*
X109244996Y-108597290D01*
X109191490Y-108432619D01*
X109112886Y-108278350D01*
X109011114Y-108138272D01*
X108888684Y-108015842D01*
X108805633Y-107955503D01*
X108762967Y-107900173D01*
X108756988Y-107830560D01*
X108789593Y-107768764D01*
X108805633Y-107754866D01*
X108889010Y-107694289D01*
X109011496Y-107571803D01*
X109113314Y-107431663D01*
X109191955Y-107277320D01*
X109245484Y-107112576D01*
X109272582Y-106941486D01*
X109272582Y-106768264D01*
X109245484Y-106597174D01*
X109191955Y-106432430D01*
X109113314Y-106278087D01*
X109011496Y-106137947D01*
X108889010Y-106015461D01*
X108806057Y-105955192D01*
X108763393Y-105899863D01*
X108757414Y-105830249D01*
X108790020Y-105768454D01*
X108806058Y-105754557D01*
X108889010Y-105694289D01*
X109011496Y-105571803D01*
X109053447Y-105514061D01*
X109108777Y-105471397D01*
X109178391Y-105465418D01*
X109240186Y-105498024D01*
X109241446Y-105499267D01*
X110983122Y-107240943D01*
X111016607Y-107302266D01*
X111017058Y-107304432D01*
X111051947Y-107479829D01*
X111051950Y-107479839D01*
X111127364Y-107661907D01*
X111127371Y-107661920D01*
X111236860Y-107825781D01*
X111236863Y-107825785D01*
X111376214Y-107965136D01*
X111376218Y-107965139D01*
X111540079Y-108074628D01*
X111540092Y-108074635D01*
X111722160Y-108150049D01*
X111722165Y-108150051D01*
X111722169Y-108150051D01*
X111722170Y-108150052D01*
X111915456Y-108188500D01*
X111915459Y-108188500D01*
X113642542Y-108188500D01*
X113673566Y-108182328D01*
X113739188Y-108169275D01*
X113835836Y-108150051D01*
X113889165Y-108127961D01*
X114017914Y-108074632D01*
X114181782Y-107965139D01*
X114321139Y-107825782D01*
X114321139Y-107825780D01*
X114331347Y-107815573D01*
X114331348Y-107815570D01*
X115780102Y-106366818D01*
X115841425Y-106333333D01*
X115867783Y-106330499D01*
X116323338Y-106330499D01*
X116323344Y-106330499D01*
X116323352Y-106330498D01*
X116323355Y-106330498D01*
X116377760Y-106324940D01*
X116422708Y-106320349D01*
X116583697Y-106267003D01*
X116705379Y-106191947D01*
X116772771Y-106173507D01*
X116835574Y-106191948D01*
X116956511Y-106266544D01*
X116956518Y-106266547D01*
X117117393Y-106319855D01*
X117216683Y-106329999D01*
X117789999Y-106329999D01*
X117790000Y-106329998D01*
X117790000Y-105513012D01*
X117847007Y-105545925D01*
X117974174Y-105580000D01*
X118105826Y-105580000D01*
X118232993Y-105545925D01*
X118290000Y-105513012D01*
X118290000Y-106329999D01*
X118863308Y-106329999D01*
X118863322Y-106329998D01*
X118962607Y-106319855D01*
X119123481Y-106266547D01*
X119123492Y-106266542D01*
X119267728Y-106177575D01*
X119267732Y-106177572D01*
X119387572Y-106057732D01*
X119387575Y-106057728D01*
X119476542Y-105913492D01*
X119476547Y-105913481D01*
X119529855Y-105752606D01*
X119539999Y-105653322D01*
X119540000Y-105653309D01*
X119540000Y-105330000D01*
X118473012Y-105330000D01*
X118505925Y-105272993D01*
X118540000Y-105145826D01*
X118540000Y-105014174D01*
X118505925Y-104887007D01*
X118473012Y-104830000D01*
X119539999Y-104830000D01*
X119539999Y-104506692D01*
X119539998Y-104506677D01*
X119529855Y-104407392D01*
X119476547Y-104246518D01*
X119476542Y-104246507D01*
X119387575Y-104102271D01*
X119387572Y-104102267D01*
X119267732Y-103982427D01*
X119267728Y-103982424D01*
X119123492Y-103893457D01*
X119123481Y-103893452D01*
X118962606Y-103840144D01*
X118863322Y-103830000D01*
X118290000Y-103830000D01*
X118290000Y-104646988D01*
X118232993Y-104614075D01*
X118105826Y-104580000D01*
X117974174Y-104580000D01*
X117847007Y-104614075D01*
X117790000Y-104646988D01*
X117790000Y-103830000D01*
X117216692Y-103830000D01*
X117216676Y-103830001D01*
X117117392Y-103840144D01*
X116956518Y-103893452D01*
X116956513Y-103893454D01*
X116835573Y-103968052D01*
X116768181Y-103986492D01*
X116705379Y-103968052D01*
X116583699Y-103892998D01*
X116583694Y-103892996D01*
X116422709Y-103839651D01*
X116323346Y-103829500D01*
X114676662Y-103829500D01*
X114676644Y-103829501D01*
X114577292Y-103839650D01*
X114577289Y-103839651D01*
X114416305Y-103892996D01*
X114416300Y-103892998D01*
X114295097Y-103967758D01*
X114227704Y-103986198D01*
X114164903Y-103967758D01*
X114043699Y-103892998D01*
X114043694Y-103892996D01*
X113882709Y-103839651D01*
X113783346Y-103829500D01*
X112136662Y-103829500D01*
X112136644Y-103829501D01*
X112037292Y-103839650D01*
X112037289Y-103839651D01*
X111876305Y-103892996D01*
X111876294Y-103893001D01*
X111731959Y-103982029D01*
X111731955Y-103982032D01*
X111612032Y-104101955D01*
X111612029Y-104101959D01*
X111523001Y-104246294D01*
X111522996Y-104246305D01*
X111469651Y-104407290D01*
X111459500Y-104506647D01*
X111459500Y-104588118D01*
X111439815Y-104655157D01*
X111387011Y-104700912D01*
X111317853Y-104710856D01*
X111254297Y-104681831D01*
X111247819Y-104675799D01*
X109288330Y-102716311D01*
X109254845Y-102654988D01*
X109253544Y-102648067D01*
X109245484Y-102597174D01*
X109191955Y-102432430D01*
X109113314Y-102278087D01*
X109011496Y-102137947D01*
X108940605Y-102067056D01*
X108907120Y-102005733D01*
X108912104Y-101936041D01*
X108953976Y-101880108D01*
X109019440Y-101855691D01*
X109028286Y-101855375D01*
X116529213Y-101855375D01*
X116602067Y-101840883D01*
X116626259Y-101838500D01*
X119875500Y-101838500D01*
X119942539Y-101858185D01*
X119988294Y-101910989D01*
X119999500Y-101962500D01*
X119999500Y-121104217D01*
X119979815Y-121171256D01*
X119963181Y-121191898D01*
X119715149Y-121439930D01*
X119653826Y-121473415D01*
X119584134Y-121468431D01*
X119528201Y-121426559D01*
X119503784Y-121361095D01*
X119509762Y-121313244D01*
X119529856Y-121252605D01*
X119539999Y-121153322D01*
X119540000Y-121153309D01*
X119540000Y-120830000D01*
X118473012Y-120830000D01*
X118505925Y-120772993D01*
X118540000Y-120645826D01*
X118540000Y-120514174D01*
X118505925Y-120387007D01*
X118473012Y-120330000D01*
X119539999Y-120330000D01*
X119539999Y-120006692D01*
X119539998Y-120006677D01*
X119529855Y-119907392D01*
X119476547Y-119746518D01*
X119476542Y-119746507D01*
X119387575Y-119602271D01*
X119387572Y-119602267D01*
X119267732Y-119482427D01*
X119267728Y-119482424D01*
X119123492Y-119393457D01*
X119123481Y-119393452D01*
X118962606Y-119340144D01*
X118863322Y-119330000D01*
X118290000Y-119330000D01*
X118290000Y-120146988D01*
X118232993Y-120114075D01*
X118105826Y-120080000D01*
X117974174Y-120080000D01*
X117847007Y-120114075D01*
X117790000Y-120146988D01*
X117790000Y-119330000D01*
X117216692Y-119330000D01*
X117216676Y-119330001D01*
X117117392Y-119340144D01*
X116956518Y-119393452D01*
X116956513Y-119393454D01*
X116835573Y-119468052D01*
X116768181Y-119486492D01*
X116705379Y-119468052D01*
X116583699Y-119392998D01*
X116583694Y-119392996D01*
X116422709Y-119339651D01*
X116323346Y-119329500D01*
X114676662Y-119329500D01*
X114676644Y-119329501D01*
X114577292Y-119339650D01*
X114577289Y-119339651D01*
X114416305Y-119392996D01*
X114416300Y-119392998D01*
X114295097Y-119467758D01*
X114227704Y-119486198D01*
X114164903Y-119467758D01*
X114043699Y-119392998D01*
X114043694Y-119392996D01*
X113882709Y-119339651D01*
X113783346Y-119329500D01*
X112136662Y-119329500D01*
X112136644Y-119329501D01*
X112037292Y-119339650D01*
X112037289Y-119339651D01*
X111876305Y-119392996D01*
X111876294Y-119393001D01*
X111731959Y-119482029D01*
X111731955Y-119482032D01*
X111612032Y-119601955D01*
X111612029Y-119601959D01*
X111523001Y-119746294D01*
X111522996Y-119746305D01*
X111469651Y-119907290D01*
X111459500Y-120006647D01*
X111459500Y-121153337D01*
X111459501Y-121153355D01*
X111469650Y-121252707D01*
X111469651Y-121252710D01*
X111522996Y-121413694D01*
X111523001Y-121413705D01*
X111612029Y-121558040D01*
X111612032Y-121558044D01*
X111731955Y-121677967D01*
X111731959Y-121677970D01*
X111876294Y-121766998D01*
X111876297Y-121766999D01*
X111876303Y-121767003D01*
X112037292Y-121820349D01*
X112136655Y-121830500D01*
X113783344Y-121830499D01*
X113783352Y-121830498D01*
X113783355Y-121830498D01*
X113837760Y-121824940D01*
X113882708Y-121820349D01*
X114043697Y-121767003D01*
X114062932Y-121755138D01*
X114164903Y-121692242D01*
X114232295Y-121673801D01*
X114295097Y-121692242D01*
X114416294Y-121766998D01*
X114416297Y-121766999D01*
X114416303Y-121767003D01*
X114577292Y-121820349D01*
X114577300Y-121820349D01*
X114582999Y-121821570D01*
X114644436Y-121854847D01*
X114660154Y-121873935D01*
X114722857Y-121967777D01*
X114722859Y-121967780D01*
X114722860Y-121967781D01*
X114722861Y-121967782D01*
X114862218Y-122107139D01*
X114862219Y-122107139D01*
X114869286Y-122114206D01*
X114869285Y-122114206D01*
X114869288Y-122114208D01*
X116836860Y-124081781D01*
X116836861Y-124081782D01*
X116976218Y-124221139D01*
X117140086Y-124330632D01*
X117246745Y-124374811D01*
X117322164Y-124406051D01*
X117496275Y-124440684D01*
X117515454Y-124444499D01*
X117515457Y-124444500D01*
X117515459Y-124444500D01*
X119478543Y-124444500D01*
X119608582Y-124418632D01*
X119671835Y-124406051D01*
X119853914Y-124330632D01*
X120017782Y-124221139D01*
X120157139Y-124081782D01*
X120266632Y-123917914D01*
X120342051Y-123735835D01*
X120357797Y-123656672D01*
X120390180Y-123594766D01*
X120391676Y-123593242D01*
X121637778Y-122347141D01*
X121637782Y-122347139D01*
X121777139Y-122207782D01*
X121886632Y-122043914D01*
X121962051Y-121861835D01*
X121974876Y-121797360D01*
X122000500Y-121668543D01*
X122000500Y-101343456D01*
X121962051Y-101150167D01*
X121962051Y-101150165D01*
X121960620Y-101146711D01*
X121939961Y-101096834D01*
X121908211Y-101020183D01*
X121886635Y-100968092D01*
X121886628Y-100968079D01*
X121777139Y-100804218D01*
X121777136Y-100804214D01*
X121634686Y-100661764D01*
X121634655Y-100661735D01*
X121177479Y-100204559D01*
X121177459Y-100204537D01*
X121033785Y-100060863D01*
X121033781Y-100060860D01*
X120869920Y-99951371D01*
X120869907Y-99951364D01*
X120729113Y-99893046D01*
X120729109Y-99893045D01*
X120721007Y-99889689D01*
X120687836Y-99875949D01*
X120579376Y-99854375D01*
X120576012Y-99853706D01*
X120576005Y-99853704D01*
X120494543Y-99837500D01*
X120494541Y-99837500D01*
X116349005Y-99837500D01*
X116349003Y-99837500D01*
X116276150Y-99851992D01*
X116251958Y-99854375D01*
X109225423Y-99854375D01*
X109158384Y-99834690D01*
X109112629Y-99781886D01*
X109102685Y-99712728D01*
X109119884Y-99665279D01*
X109206892Y-99524215D01*
X109206896Y-99524209D01*
X109262081Y-99357672D01*
X109272582Y-99254884D01*
X109272581Y-98454867D01*
X109262081Y-98352078D01*
X109206896Y-98185541D01*
X109114794Y-98036219D01*
X108990738Y-97912163D01*
X108841416Y-97820061D01*
X108674879Y-97764876D01*
X108674877Y-97764875D01*
X108572092Y-97754375D01*
X107222080Y-97754375D01*
X107222063Y-97754376D01*
X107119285Y-97764875D01*
X107119282Y-97764876D01*
X106952750Y-97820060D01*
X106952745Y-97820062D01*
X106803424Y-97912164D01*
X106679371Y-98036217D01*
X106587269Y-98185538D01*
X106587268Y-98185541D01*
X106532083Y-98352078D01*
X106532083Y-98352079D01*
X106532082Y-98352079D01*
X106521582Y-98454858D01*
X106521582Y-99254876D01*
X106521583Y-99254894D01*
X106532082Y-99357671D01*
X106532083Y-99357674D01*
X106587267Y-99524206D01*
X106587269Y-99524211D01*
X106622151Y-99580763D01*
X106679370Y-99673531D01*
X106803426Y-99797587D01*
X106863580Y-99834690D01*
X106867625Y-99837185D01*
X106914350Y-99889133D01*
X106925571Y-99958096D01*
X106897728Y-100022178D01*
X106890210Y-100030405D01*
X106782667Y-100137948D01*
X106680850Y-100278086D01*
X106602210Y-100432427D01*
X106548679Y-100597177D01*
X106521582Y-100768264D01*
X106521582Y-100941485D01*
X106546186Y-101096834D01*
X106548680Y-101112576D01*
X106602209Y-101277320D01*
X106680850Y-101431663D01*
X106782668Y-101571803D01*
X106905154Y-101694289D01*
X106905160Y-101694293D01*
X106988105Y-101754558D01*
X107030771Y-101809888D01*
X107036749Y-101879501D01*
X107004143Y-101941296D01*
X106988105Y-101955192D01*
X106905160Y-102015456D01*
X106905151Y-102015463D01*
X106782670Y-102137944D01*
X106782670Y-102137945D01*
X106782668Y-102137947D01*
X106738941Y-102198131D01*
X106680850Y-102278086D01*
X106602210Y-102432427D01*
X106548679Y-102597177D01*
X106521582Y-102768264D01*
X106521582Y-102941486D01*
X106548680Y-103112576D01*
X106602209Y-103277320D01*
X106680850Y-103431663D01*
X106782668Y-103571803D01*
X106782670Y-103571805D01*
X106853559Y-103642694D01*
X106887044Y-103704017D01*
X106882060Y-103773709D01*
X106840188Y-103829642D01*
X106774724Y-103854059D01*
X106765878Y-103854375D01*
X106628580Y-103854375D01*
X106536425Y-103872706D01*
X106536421Y-103872707D01*
X106531937Y-103873599D01*
X106435289Y-103892824D01*
X106385028Y-103913643D01*
X106377995Y-103916555D01*
X106377988Y-103916558D01*
X106253217Y-103968239D01*
X106253204Y-103968246D01*
X106089343Y-104077735D01*
X106089339Y-104077738D01*
X104209202Y-105957877D01*
X104147879Y-105991362D01*
X104078187Y-105986378D01*
X104022254Y-105944506D01*
X103997837Y-105879042D01*
X104003815Y-105831192D01*
X104029855Y-105752606D01*
X104039999Y-105653322D01*
X104040000Y-105653309D01*
X104040000Y-105330000D01*
X102973012Y-105330000D01*
X103005925Y-105272993D01*
X103040000Y-105145826D01*
X103040000Y-105014174D01*
X103005925Y-104887007D01*
X102973012Y-104830000D01*
X104039999Y-104830000D01*
X104039999Y-104506692D01*
X104039998Y-104506677D01*
X104029855Y-104407392D01*
X103976547Y-104246518D01*
X103976542Y-104246507D01*
X103887575Y-104102271D01*
X103887572Y-104102267D01*
X103767732Y-103982427D01*
X103767728Y-103982424D01*
X103623492Y-103893457D01*
X103623481Y-103893452D01*
X103462606Y-103840144D01*
X103363322Y-103830000D01*
X102790000Y-103830000D01*
X102790000Y-104646988D01*
X102732993Y-104614075D01*
X102605826Y-104580000D01*
X102474174Y-104580000D01*
X102347007Y-104614075D01*
X102290000Y-104646988D01*
X102290000Y-103830000D01*
X101716692Y-103830000D01*
X101716676Y-103830001D01*
X101617392Y-103840144D01*
X101456518Y-103893452D01*
X101456513Y-103893454D01*
X101335573Y-103968052D01*
X101268181Y-103986492D01*
X101205379Y-103968052D01*
X101083699Y-103892998D01*
X101083694Y-103892996D01*
X100922709Y-103839651D01*
X100823346Y-103829500D01*
X99176662Y-103829500D01*
X99176644Y-103829501D01*
X99077292Y-103839650D01*
X99077289Y-103839651D01*
X98916305Y-103892996D01*
X98916300Y-103892998D01*
X98795097Y-103967758D01*
X98727704Y-103986198D01*
X98664903Y-103967758D01*
X98543699Y-103892998D01*
X98543694Y-103892996D01*
X98382709Y-103839651D01*
X98283346Y-103829500D01*
X96636662Y-103829500D01*
X96636644Y-103829501D01*
X96537292Y-103839650D01*
X96537289Y-103839651D01*
X96376305Y-103892996D01*
X96376294Y-103893001D01*
X96231959Y-103982029D01*
X96231955Y-103982032D01*
X96112032Y-104101955D01*
X96112029Y-104101959D01*
X96023001Y-104246294D01*
X96022996Y-104246305D01*
X95969651Y-104407290D01*
X95959500Y-104506647D01*
X92533367Y-104506647D01*
X92533367Y-94346647D01*
X95959500Y-94346647D01*
X95959500Y-95493337D01*
X95959501Y-95493355D01*
X95969650Y-95592707D01*
X95969651Y-95592710D01*
X96022996Y-95753694D01*
X96023001Y-95753705D01*
X96112029Y-95898040D01*
X96112032Y-95898044D01*
X96231955Y-96017967D01*
X96231959Y-96017970D01*
X96376294Y-96106998D01*
X96376297Y-96106999D01*
X96376303Y-96107003D01*
X96537292Y-96160349D01*
X96636655Y-96170500D01*
X98283344Y-96170499D01*
X98283352Y-96170498D01*
X98283355Y-96170498D01*
X98337760Y-96164940D01*
X98382708Y-96160349D01*
X98543697Y-96107003D01*
X98562932Y-96095138D01*
X98664903Y-96032242D01*
X98732295Y-96013801D01*
X98795097Y-96032242D01*
X98916294Y-96106998D01*
X98916297Y-96106999D01*
X98916303Y-96107003D01*
X99077292Y-96160349D01*
X99176655Y-96170500D01*
X100823344Y-96170499D01*
X100823352Y-96170498D01*
X100823355Y-96170498D01*
X100877760Y-96164940D01*
X100922708Y-96160349D01*
X101083697Y-96107003D01*
X101205379Y-96031947D01*
X101272771Y-96013507D01*
X101335574Y-96031948D01*
X101456511Y-96106544D01*
X101456518Y-96106547D01*
X101617393Y-96159855D01*
X101716683Y-96169999D01*
X102289999Y-96169999D01*
X102290000Y-96169998D01*
X102290000Y-95353012D01*
X102347007Y-95385925D01*
X102474174Y-95420000D01*
X102605826Y-95420000D01*
X102732993Y-95385925D01*
X102790000Y-95353012D01*
X102790000Y-96169999D01*
X103363308Y-96169999D01*
X103363322Y-96169998D01*
X103462607Y-96159855D01*
X103623481Y-96106547D01*
X103623492Y-96106542D01*
X103767728Y-96017575D01*
X103767732Y-96017572D01*
X103887572Y-95897732D01*
X103887575Y-95897728D01*
X103976542Y-95753492D01*
X103976547Y-95753481D01*
X104029855Y-95592606D01*
X104039999Y-95493322D01*
X104040000Y-95493309D01*
X104040000Y-95170000D01*
X102973012Y-95170000D01*
X103005925Y-95112993D01*
X103040000Y-94985826D01*
X103040000Y-94854174D01*
X103005925Y-94727007D01*
X102973012Y-94670000D01*
X104039999Y-94670000D01*
X104039999Y-94346688D01*
X104039998Y-94346680D01*
X104039995Y-94346647D01*
X111459500Y-94346647D01*
X111459500Y-95493337D01*
X111459501Y-95493355D01*
X111469650Y-95592707D01*
X111469651Y-95592710D01*
X111522996Y-95753694D01*
X111523001Y-95753705D01*
X111612029Y-95898040D01*
X111612032Y-95898044D01*
X111731955Y-96017967D01*
X111731959Y-96017970D01*
X111876294Y-96106998D01*
X111876297Y-96106999D01*
X111876303Y-96107003D01*
X112037292Y-96160349D01*
X112136655Y-96170500D01*
X113783344Y-96170499D01*
X113783352Y-96170498D01*
X113783355Y-96170498D01*
X113837760Y-96164940D01*
X113882708Y-96160349D01*
X114043697Y-96107003D01*
X114062932Y-96095138D01*
X114164903Y-96032242D01*
X114232295Y-96013801D01*
X114295097Y-96032242D01*
X114416294Y-96106998D01*
X114416297Y-96106999D01*
X114416303Y-96107003D01*
X114577292Y-96160349D01*
X114676655Y-96170500D01*
X116323344Y-96170499D01*
X116323352Y-96170498D01*
X116323355Y-96170498D01*
X116377760Y-96164940D01*
X116422708Y-96160349D01*
X116583697Y-96107003D01*
X116705379Y-96031947D01*
X116772771Y-96013507D01*
X116835574Y-96031948D01*
X116956511Y-96106544D01*
X116956518Y-96106547D01*
X117117393Y-96159855D01*
X117216683Y-96169999D01*
X117789999Y-96169999D01*
X117790000Y-96169998D01*
X117790000Y-95353012D01*
X117847007Y-95385925D01*
X117974174Y-95420000D01*
X118105826Y-95420000D01*
X118232993Y-95385925D01*
X118290000Y-95353012D01*
X118290000Y-96169999D01*
X118863308Y-96169999D01*
X118863322Y-96169998D01*
X118962607Y-96159855D01*
X119123481Y-96106547D01*
X119123492Y-96106542D01*
X119267728Y-96017575D01*
X119267732Y-96017572D01*
X119387572Y-95897732D01*
X119387575Y-95897728D01*
X119476542Y-95753492D01*
X119476547Y-95753481D01*
X119529855Y-95592606D01*
X119539999Y-95493322D01*
X119540000Y-95493309D01*
X119540000Y-95170000D01*
X118473012Y-95170000D01*
X118505925Y-95112993D01*
X118540000Y-94985826D01*
X118540000Y-94854174D01*
X118505925Y-94727007D01*
X118473012Y-94670000D01*
X119539999Y-94670000D01*
X119539999Y-94346692D01*
X119539998Y-94346677D01*
X119529855Y-94247392D01*
X119476547Y-94086518D01*
X119476542Y-94086507D01*
X119387575Y-93942271D01*
X119387572Y-93942267D01*
X119267732Y-93822427D01*
X119267728Y-93822424D01*
X119123492Y-93733457D01*
X119123481Y-93733452D01*
X118962606Y-93680144D01*
X118863322Y-93670000D01*
X118290000Y-93670000D01*
X118290000Y-94486988D01*
X118232993Y-94454075D01*
X118105826Y-94420000D01*
X117974174Y-94420000D01*
X117847007Y-94454075D01*
X117790000Y-94486988D01*
X117790000Y-93670000D01*
X117216692Y-93670000D01*
X117216676Y-93670001D01*
X117117392Y-93680144D01*
X116956518Y-93733452D01*
X116956513Y-93733454D01*
X116835573Y-93808052D01*
X116768181Y-93826492D01*
X116705379Y-93808052D01*
X116583699Y-93732998D01*
X116583694Y-93732996D01*
X116422709Y-93679651D01*
X116323346Y-93669500D01*
X114676662Y-93669500D01*
X114676644Y-93669501D01*
X114577292Y-93679650D01*
X114577289Y-93679651D01*
X114416305Y-93732996D01*
X114416300Y-93732998D01*
X114295097Y-93807758D01*
X114227704Y-93826198D01*
X114164903Y-93807758D01*
X114043699Y-93732998D01*
X114043694Y-93732996D01*
X113882709Y-93679651D01*
X113783346Y-93669500D01*
X112136662Y-93669500D01*
X112136644Y-93669501D01*
X112037292Y-93679650D01*
X112037289Y-93679651D01*
X111876305Y-93732996D01*
X111876294Y-93733001D01*
X111731959Y-93822029D01*
X111731955Y-93822032D01*
X111612032Y-93941955D01*
X111612029Y-93941959D01*
X111523001Y-94086294D01*
X111522996Y-94086305D01*
X111469651Y-94247290D01*
X111459500Y-94346647D01*
X104039995Y-94346647D01*
X104029855Y-94247392D01*
X103976547Y-94086518D01*
X103976542Y-94086507D01*
X103887575Y-93942271D01*
X103887572Y-93942267D01*
X103767732Y-93822427D01*
X103767728Y-93822424D01*
X103623492Y-93733457D01*
X103623481Y-93733452D01*
X103462606Y-93680144D01*
X103363322Y-93670000D01*
X102790000Y-93670000D01*
X102790000Y-94486988D01*
X102732993Y-94454075D01*
X102605826Y-94420000D01*
X102474174Y-94420000D01*
X102347007Y-94454075D01*
X102290000Y-94486988D01*
X102290000Y-93670000D01*
X101716692Y-93670000D01*
X101716676Y-93670001D01*
X101617392Y-93680144D01*
X101456518Y-93733452D01*
X101456513Y-93733454D01*
X101335573Y-93808052D01*
X101268181Y-93826492D01*
X101205379Y-93808052D01*
X101083699Y-93732998D01*
X101083694Y-93732996D01*
X100922709Y-93679651D01*
X100823346Y-93669500D01*
X99176662Y-93669500D01*
X99176644Y-93669501D01*
X99077292Y-93679650D01*
X99077289Y-93679651D01*
X98916305Y-93732996D01*
X98916300Y-93732998D01*
X98795097Y-93807758D01*
X98727704Y-93826198D01*
X98664903Y-93807758D01*
X98543699Y-93732998D01*
X98543694Y-93732996D01*
X98382709Y-93679651D01*
X98283346Y-93669500D01*
X96636662Y-93669500D01*
X96636644Y-93669501D01*
X96537292Y-93679650D01*
X96537289Y-93679651D01*
X96376305Y-93732996D01*
X96376294Y-93733001D01*
X96231959Y-93822029D01*
X96231955Y-93822032D01*
X96112032Y-93941955D01*
X96112029Y-93941959D01*
X96023001Y-94086294D01*
X96022996Y-94086305D01*
X95969651Y-94247290D01*
X95959500Y-94346647D01*
X92533367Y-94346647D01*
X92533367Y-93729244D01*
X92533537Y-93722755D01*
X92535796Y-93679650D01*
X92549765Y-93413081D01*
X92551119Y-93400209D01*
X92599122Y-93097125D01*
X92601811Y-93084472D01*
X92681237Y-92788052D01*
X92685237Y-92775741D01*
X92795203Y-92489267D01*
X92800479Y-92477420D01*
X92939782Y-92204019D01*
X92946257Y-92192803D01*
X93113383Y-91935449D01*
X93120998Y-91924968D01*
X93314101Y-91686505D01*
X93322767Y-91676879D01*
X93539754Y-91459890D01*
X93549379Y-91451224D01*
X93787849Y-91258112D01*
X93798324Y-91250502D01*
X94055684Y-91083367D01*
X94066889Y-91076898D01*
X94340304Y-90937585D01*
X94352135Y-90932316D01*
X94638610Y-90822346D01*
X94650937Y-90818341D01*
X94947337Y-90738919D01*
X94960002Y-90736228D01*
X95263082Y-90688221D01*
X95275954Y-90686868D01*
X95563984Y-90671771D01*
X95585000Y-90670670D01*
X95591490Y-90670500D01*
X95654764Y-90670500D01*
X119632109Y-90670500D01*
X119694520Y-90670500D01*
X119701472Y-90670695D01*
G37*
%TD.AperFunction*%
%TD*%
M02*
