%TF.GenerationSoftware,KiCad,Pcbnew,9.0.6*%
%TF.CreationDate,2026-03-31T10:45:14+01:00*%
%TF.ProjectId,UntitledNeve NKK JB switches,556e7469-746c-4656-944e-657665204e4b,rev?*%
%TF.SameCoordinates,Original*%
%TF.FileFunction,Legend,Bot*%
%TF.FilePolarity,Positive*%
%FSLAX46Y46*%
G04 Gerber Fmt 4.6, Leading zero omitted, Abs format (unit mm)*
G04 Created by KiCad (PCBNEW 9.0.6) date 2026-03-31 10:45:14*
%MOMM*%
%LPD*%
G01*
G04 APERTURE LIST*
%ADD10C,0.150000*%
%ADD11C,0.120000*%
G04 APERTURE END LIST*
D10*
X105451901Y-107092970D02*
X104451901Y-107092970D01*
X104928091Y-107092970D02*
X104928091Y-107664398D01*
X105451901Y-107664398D02*
X104451901Y-107664398D01*
X105451901Y-108664398D02*
X105451901Y-108092970D01*
X105451901Y-108378684D02*
X104451901Y-108378684D01*
X104451901Y-108378684D02*
X104594758Y-108283446D01*
X104594758Y-108283446D02*
X104689996Y-108188208D01*
X104689996Y-108188208D02*
X104737615Y-108092970D01*
D11*
%TO.C,H1*%
X105787082Y-96494875D02*
X107037082Y-96494875D01*
X106087082Y-96794875D02*
X110807082Y-96794875D01*
X107397082Y-96794875D02*
X107397082Y-97404875D01*
X108697082Y-96794875D02*
X108697082Y-97404875D01*
X110807082Y-96794875D02*
X110807082Y-118914875D01*
X106697082Y-97404875D02*
X110197082Y-97404875D01*
X110197082Y-97404875D02*
X110197082Y-118304875D01*
X105787082Y-97744875D02*
X105787082Y-96494875D01*
X105887082Y-98254875D02*
X106087082Y-98254875D01*
X105887082Y-98554875D02*
X105887082Y-98254875D01*
X105987082Y-98554875D02*
X105987082Y-98254875D01*
X106087082Y-98554875D02*
X105887082Y-98554875D01*
X106087082Y-99354875D02*
X106697082Y-99354875D01*
X106697082Y-99354875D02*
X106697082Y-97404875D01*
X109697082Y-99754875D02*
X109697082Y-99954875D01*
X110197082Y-99754875D02*
X109697082Y-99754875D01*
X110197082Y-99854875D02*
X109697082Y-99854875D01*
X109697082Y-99954875D02*
X110197082Y-99954875D01*
X109697082Y-101754875D02*
X109697082Y-101954875D01*
X110197082Y-101754875D02*
X109697082Y-101754875D01*
X110197082Y-101854875D02*
X109697082Y-101854875D01*
X109697082Y-101954875D02*
X110197082Y-101954875D01*
X109697082Y-103754875D02*
X109697082Y-103954875D01*
X110197082Y-103754875D02*
X109697082Y-103754875D01*
X110197082Y-103854875D02*
X109697082Y-103854875D01*
X109697082Y-103954875D02*
X110197082Y-103954875D01*
X109697082Y-105754875D02*
X109697082Y-105954875D01*
X110197082Y-105754875D02*
X109697082Y-105754875D01*
X110197082Y-105854875D02*
X109697082Y-105854875D01*
X109697082Y-105954875D02*
X110197082Y-105954875D01*
X109697082Y-107754875D02*
X109697082Y-107954875D01*
X110197082Y-107754875D02*
X109697082Y-107754875D01*
X110197082Y-107854875D02*
X109697082Y-107854875D01*
X109697082Y-107954875D02*
X110197082Y-107954875D01*
X109697082Y-109754875D02*
X109697082Y-109954875D01*
X110197082Y-109754875D02*
X109697082Y-109754875D01*
X110197082Y-109854875D02*
X109697082Y-109854875D01*
X109697082Y-109954875D02*
X110197082Y-109954875D01*
X109697082Y-111754875D02*
X109697082Y-111954875D01*
X110197082Y-111754875D02*
X109697082Y-111754875D01*
X110197082Y-111854875D02*
X109697082Y-111854875D01*
X109697082Y-111954875D02*
X110197082Y-111954875D01*
X109697082Y-113754875D02*
X109697082Y-113954875D01*
X110197082Y-113754875D02*
X109697082Y-113754875D01*
X110197082Y-113854875D02*
X109697082Y-113854875D01*
X109697082Y-113954875D02*
X110197082Y-113954875D01*
X109697082Y-115754875D02*
X109697082Y-115954875D01*
X110197082Y-115754875D02*
X109697082Y-115754875D01*
X110197082Y-115854875D02*
X109697082Y-115854875D01*
X109697082Y-115954875D02*
X110197082Y-115954875D01*
X106697082Y-116354875D02*
X106087082Y-116354875D01*
X106697082Y-118304875D02*
X106697082Y-116354875D01*
X110197082Y-118304875D02*
X106697082Y-118304875D01*
X106087082Y-118914875D02*
X106087082Y-96794875D01*
X107397082Y-118914875D02*
X107397082Y-118304875D01*
X108697082Y-118914875D02*
X108697082Y-118304875D01*
X110807082Y-118914875D02*
X106087082Y-118914875D01*
%TD*%
M02*
