%TF.GenerationSoftware,KiCad,Pcbnew,9.0.6*%
%TF.CreationDate,2026-03-31T10:45:14+01:00*%
%TF.ProjectId,UntitledNeve NKK JB switches,556e7469-746c-4656-944e-657665204e4b,rev?*%
%TF.SameCoordinates,Original*%
%TF.FileFunction,Legend,Top*%
%TF.FilePolarity,Positive*%
%FSLAX46Y46*%
G04 Gerber Fmt 4.6, Leading zero omitted, Abs format (unit mm)*
G04 Created by KiCad (PCBNEW 9.0.6) date 2026-03-31 10:45:14*
%MOMM*%
%LPD*%
G01*
G04 APERTURE LIST*
%ADD10C,0.100000*%
%ADD11C,0.150000*%
%ADD12C,0.120000*%
%ADD13C,0.304000*%
G04 APERTURE END LIST*
D10*
X99617884Y-112267466D02*
X100379789Y-112267466D01*
X99998836Y-112648419D02*
X99998836Y-111886514D01*
X115111884Y-112267466D02*
X115873789Y-112267466D01*
X115492836Y-112648419D02*
X115492836Y-111886514D01*
X115111884Y-96773466D02*
X115873789Y-96773466D01*
X115492836Y-97154419D02*
X115492836Y-96392514D01*
X99617884Y-96773466D02*
X100379789Y-96773466D01*
X99998836Y-97154419D02*
X99998836Y-96392514D01*
D11*
X94454819Y-108166666D02*
X93978628Y-108499999D01*
X94454819Y-108738094D02*
X93454819Y-108738094D01*
X93454819Y-108738094D02*
X93454819Y-108357142D01*
X93454819Y-108357142D02*
X93502438Y-108261904D01*
X93502438Y-108261904D02*
X93550057Y-108214285D01*
X93550057Y-108214285D02*
X93645295Y-108166666D01*
X93645295Y-108166666D02*
X93788152Y-108166666D01*
X93788152Y-108166666D02*
X93883390Y-108214285D01*
X93883390Y-108214285D02*
X93931009Y-108261904D01*
X93931009Y-108261904D02*
X93978628Y-108357142D01*
X93978628Y-108357142D02*
X93978628Y-108738094D01*
X93788152Y-107309523D02*
X94454819Y-107309523D01*
X93407200Y-107547618D02*
X94121485Y-107785713D01*
X94121485Y-107785713D02*
X94121485Y-107166666D01*
X97454819Y-92666666D02*
X96978628Y-92999999D01*
X97454819Y-93238094D02*
X96454819Y-93238094D01*
X96454819Y-93238094D02*
X96454819Y-92857142D01*
X96454819Y-92857142D02*
X96502438Y-92761904D01*
X96502438Y-92761904D02*
X96550057Y-92714285D01*
X96550057Y-92714285D02*
X96645295Y-92666666D01*
X96645295Y-92666666D02*
X96788152Y-92666666D01*
X96788152Y-92666666D02*
X96883390Y-92714285D01*
X96883390Y-92714285D02*
X96931009Y-92761904D01*
X96931009Y-92761904D02*
X96978628Y-92857142D01*
X96978628Y-92857142D02*
X96978628Y-93238094D01*
X96454819Y-92333332D02*
X96454819Y-91714285D01*
X96454819Y-91714285D02*
X96835771Y-92047618D01*
X96835771Y-92047618D02*
X96835771Y-91904761D01*
X96835771Y-91904761D02*
X96883390Y-91809523D01*
X96883390Y-91809523D02*
X96931009Y-91761904D01*
X96931009Y-91761904D02*
X97026247Y-91714285D01*
X97026247Y-91714285D02*
X97264342Y-91714285D01*
X97264342Y-91714285D02*
X97359580Y-91761904D01*
X97359580Y-91761904D02*
X97407200Y-91809523D01*
X97407200Y-91809523D02*
X97454819Y-91904761D01*
X97454819Y-91904761D02*
X97454819Y-92190475D01*
X97454819Y-92190475D02*
X97407200Y-92285713D01*
X97407200Y-92285713D02*
X97359580Y-92333332D01*
X112454819Y-92666666D02*
X111978628Y-92999999D01*
X112454819Y-93238094D02*
X111454819Y-93238094D01*
X111454819Y-93238094D02*
X111454819Y-92857142D01*
X111454819Y-92857142D02*
X111502438Y-92761904D01*
X111502438Y-92761904D02*
X111550057Y-92714285D01*
X111550057Y-92714285D02*
X111645295Y-92666666D01*
X111645295Y-92666666D02*
X111788152Y-92666666D01*
X111788152Y-92666666D02*
X111883390Y-92714285D01*
X111883390Y-92714285D02*
X111931009Y-92761904D01*
X111931009Y-92761904D02*
X111978628Y-92857142D01*
X111978628Y-92857142D02*
X111978628Y-93238094D01*
X111550057Y-92285713D02*
X111502438Y-92238094D01*
X111502438Y-92238094D02*
X111454819Y-92142856D01*
X111454819Y-92142856D02*
X111454819Y-91904761D01*
X111454819Y-91904761D02*
X111502438Y-91809523D01*
X111502438Y-91809523D02*
X111550057Y-91761904D01*
X111550057Y-91761904D02*
X111645295Y-91714285D01*
X111645295Y-91714285D02*
X111740533Y-91714285D01*
X111740533Y-91714285D02*
X111883390Y-91761904D01*
X111883390Y-91761904D02*
X112454819Y-92333332D01*
X112454819Y-92333332D02*
X112454819Y-91714285D01*
X117454819Y-108166666D02*
X116978628Y-108499999D01*
X117454819Y-108738094D02*
X116454819Y-108738094D01*
X116454819Y-108738094D02*
X116454819Y-108357142D01*
X116454819Y-108357142D02*
X116502438Y-108261904D01*
X116502438Y-108261904D02*
X116550057Y-108214285D01*
X116550057Y-108214285D02*
X116645295Y-108166666D01*
X116645295Y-108166666D02*
X116788152Y-108166666D01*
X116788152Y-108166666D02*
X116883390Y-108214285D01*
X116883390Y-108214285D02*
X116931009Y-108261904D01*
X116931009Y-108261904D02*
X116978628Y-108357142D01*
X116978628Y-108357142D02*
X116978628Y-108738094D01*
X117454819Y-107214285D02*
X117454819Y-107785713D01*
X117454819Y-107499999D02*
X116454819Y-107499999D01*
X116454819Y-107499999D02*
X116597676Y-107595237D01*
X116597676Y-107595237D02*
X116692914Y-107690475D01*
X116692914Y-107690475D02*
X116740533Y-107785713D01*
D10*
X96952381Y-100409800D02*
X97095238Y-100457419D01*
X97095238Y-100457419D02*
X97333333Y-100457419D01*
X97333333Y-100457419D02*
X97428571Y-100409800D01*
X97428571Y-100409800D02*
X97476190Y-100362180D01*
X97476190Y-100362180D02*
X97523809Y-100266942D01*
X97523809Y-100266942D02*
X97523809Y-100171704D01*
X97523809Y-100171704D02*
X97476190Y-100076466D01*
X97476190Y-100076466D02*
X97428571Y-100028847D01*
X97428571Y-100028847D02*
X97333333Y-99981228D01*
X97333333Y-99981228D02*
X97142857Y-99933609D01*
X97142857Y-99933609D02*
X97047619Y-99885990D01*
X97047619Y-99885990D02*
X97000000Y-99838371D01*
X97000000Y-99838371D02*
X96952381Y-99743133D01*
X96952381Y-99743133D02*
X96952381Y-99647895D01*
X96952381Y-99647895D02*
X97000000Y-99552657D01*
X97000000Y-99552657D02*
X97047619Y-99505038D01*
X97047619Y-99505038D02*
X97142857Y-99457419D01*
X97142857Y-99457419D02*
X97380952Y-99457419D01*
X97380952Y-99457419D02*
X97523809Y-99505038D01*
X97857143Y-99457419D02*
X98095238Y-100457419D01*
X98095238Y-100457419D02*
X98285714Y-99743133D01*
X98285714Y-99743133D02*
X98476190Y-100457419D01*
X98476190Y-100457419D02*
X98714286Y-99457419D01*
X98857143Y-100552657D02*
X99619047Y-100552657D01*
X99857143Y-100457419D02*
X99857143Y-99457419D01*
X99857143Y-99457419D02*
X100238095Y-99457419D01*
X100238095Y-99457419D02*
X100333333Y-99505038D01*
X100333333Y-99505038D02*
X100380952Y-99552657D01*
X100380952Y-99552657D02*
X100428571Y-99647895D01*
X100428571Y-99647895D02*
X100428571Y-99790752D01*
X100428571Y-99790752D02*
X100380952Y-99885990D01*
X100380952Y-99885990D02*
X100333333Y-99933609D01*
X100333333Y-99933609D02*
X100238095Y-99981228D01*
X100238095Y-99981228D02*
X99857143Y-99981228D01*
X101190476Y-99933609D02*
X100857143Y-99933609D01*
X100857143Y-100457419D02*
X100857143Y-99457419D01*
X100857143Y-99457419D02*
X101333333Y-99457419D01*
X102190476Y-100457419D02*
X101714286Y-100457419D01*
X101714286Y-100457419D02*
X101714286Y-99457419D01*
X103047619Y-100457419D02*
X102476191Y-100457419D01*
X102761905Y-100457419D02*
X102761905Y-99457419D01*
X102761905Y-99457419D02*
X102666667Y-99600276D01*
X102666667Y-99600276D02*
X102571429Y-99695514D01*
X102571429Y-99695514D02*
X102476191Y-99743133D01*
X112380952Y-115909800D02*
X112523809Y-115957419D01*
X112523809Y-115957419D02*
X112761904Y-115957419D01*
X112761904Y-115957419D02*
X112857142Y-115909800D01*
X112857142Y-115909800D02*
X112904761Y-115862180D01*
X112904761Y-115862180D02*
X112952380Y-115766942D01*
X112952380Y-115766942D02*
X112952380Y-115671704D01*
X112952380Y-115671704D02*
X112904761Y-115576466D01*
X112904761Y-115576466D02*
X112857142Y-115528847D01*
X112857142Y-115528847D02*
X112761904Y-115481228D01*
X112761904Y-115481228D02*
X112571428Y-115433609D01*
X112571428Y-115433609D02*
X112476190Y-115385990D01*
X112476190Y-115385990D02*
X112428571Y-115338371D01*
X112428571Y-115338371D02*
X112380952Y-115243133D01*
X112380952Y-115243133D02*
X112380952Y-115147895D01*
X112380952Y-115147895D02*
X112428571Y-115052657D01*
X112428571Y-115052657D02*
X112476190Y-115005038D01*
X112476190Y-115005038D02*
X112571428Y-114957419D01*
X112571428Y-114957419D02*
X112809523Y-114957419D01*
X112809523Y-114957419D02*
X112952380Y-115005038D01*
X113285714Y-114957419D02*
X113523809Y-115957419D01*
X113523809Y-115957419D02*
X113714285Y-115243133D01*
X113714285Y-115243133D02*
X113904761Y-115957419D01*
X113904761Y-115957419D02*
X114142857Y-114957419D01*
X114285714Y-116052657D02*
X115047618Y-116052657D01*
X115857142Y-115862180D02*
X115809523Y-115909800D01*
X115809523Y-115909800D02*
X115666666Y-115957419D01*
X115666666Y-115957419D02*
X115571428Y-115957419D01*
X115571428Y-115957419D02*
X115428571Y-115909800D01*
X115428571Y-115909800D02*
X115333333Y-115814561D01*
X115333333Y-115814561D02*
X115285714Y-115719323D01*
X115285714Y-115719323D02*
X115238095Y-115528847D01*
X115238095Y-115528847D02*
X115238095Y-115385990D01*
X115238095Y-115385990D02*
X115285714Y-115195514D01*
X115285714Y-115195514D02*
X115333333Y-115100276D01*
X115333333Y-115100276D02*
X115428571Y-115005038D01*
X115428571Y-115005038D02*
X115571428Y-114957419D01*
X115571428Y-114957419D02*
X115666666Y-114957419D01*
X115666666Y-114957419D02*
X115809523Y-115005038D01*
X115809523Y-115005038D02*
X115857142Y-115052657D01*
X116285714Y-114957419D02*
X116285714Y-115766942D01*
X116285714Y-115766942D02*
X116333333Y-115862180D01*
X116333333Y-115862180D02*
X116380952Y-115909800D01*
X116380952Y-115909800D02*
X116476190Y-115957419D01*
X116476190Y-115957419D02*
X116666666Y-115957419D01*
X116666666Y-115957419D02*
X116761904Y-115909800D01*
X116761904Y-115909800D02*
X116809523Y-115862180D01*
X116809523Y-115862180D02*
X116857142Y-115766942D01*
X116857142Y-115766942D02*
X116857142Y-114957419D01*
X117190476Y-114957419D02*
X117761904Y-114957419D01*
X117476190Y-115957419D02*
X117476190Y-114957419D01*
X118619047Y-115957419D02*
X118047619Y-115957419D01*
X118333333Y-115957419D02*
X118333333Y-114957419D01*
X118333333Y-114957419D02*
X118238095Y-115100276D01*
X118238095Y-115100276D02*
X118142857Y-115195514D01*
X118142857Y-115195514D02*
X118047619Y-115243133D01*
X97023809Y-115909800D02*
X97166666Y-115957419D01*
X97166666Y-115957419D02*
X97404761Y-115957419D01*
X97404761Y-115957419D02*
X97499999Y-115909800D01*
X97499999Y-115909800D02*
X97547618Y-115862180D01*
X97547618Y-115862180D02*
X97595237Y-115766942D01*
X97595237Y-115766942D02*
X97595237Y-115671704D01*
X97595237Y-115671704D02*
X97547618Y-115576466D01*
X97547618Y-115576466D02*
X97499999Y-115528847D01*
X97499999Y-115528847D02*
X97404761Y-115481228D01*
X97404761Y-115481228D02*
X97214285Y-115433609D01*
X97214285Y-115433609D02*
X97119047Y-115385990D01*
X97119047Y-115385990D02*
X97071428Y-115338371D01*
X97071428Y-115338371D02*
X97023809Y-115243133D01*
X97023809Y-115243133D02*
X97023809Y-115147895D01*
X97023809Y-115147895D02*
X97071428Y-115052657D01*
X97071428Y-115052657D02*
X97119047Y-115005038D01*
X97119047Y-115005038D02*
X97214285Y-114957419D01*
X97214285Y-114957419D02*
X97452380Y-114957419D01*
X97452380Y-114957419D02*
X97595237Y-115005038D01*
X97928571Y-114957419D02*
X98166666Y-115957419D01*
X98166666Y-115957419D02*
X98357142Y-115243133D01*
X98357142Y-115243133D02*
X98547618Y-115957419D01*
X98547618Y-115957419D02*
X98785714Y-114957419D01*
X98928571Y-116052657D02*
X99690475Y-116052657D01*
X99880952Y-115671704D02*
X100357142Y-115671704D01*
X99785714Y-115957419D02*
X100119047Y-114957419D01*
X100119047Y-114957419D02*
X100452380Y-115957419D01*
X101119047Y-115433609D02*
X100785714Y-115433609D01*
X100785714Y-115957419D02*
X100785714Y-114957419D01*
X100785714Y-114957419D02*
X101261904Y-114957419D01*
X102119047Y-115957419D02*
X101642857Y-115957419D01*
X101642857Y-115957419D02*
X101642857Y-114957419D01*
X102976190Y-115957419D02*
X102404762Y-115957419D01*
X102690476Y-115957419D02*
X102690476Y-114957419D01*
X102690476Y-114957419D02*
X102595238Y-115100276D01*
X102595238Y-115100276D02*
X102500000Y-115195514D01*
X102500000Y-115195514D02*
X102404762Y-115243133D01*
X112357143Y-100409800D02*
X112500000Y-100457419D01*
X112500000Y-100457419D02*
X112738095Y-100457419D01*
X112738095Y-100457419D02*
X112833333Y-100409800D01*
X112833333Y-100409800D02*
X112880952Y-100362180D01*
X112880952Y-100362180D02*
X112928571Y-100266942D01*
X112928571Y-100266942D02*
X112928571Y-100171704D01*
X112928571Y-100171704D02*
X112880952Y-100076466D01*
X112880952Y-100076466D02*
X112833333Y-100028847D01*
X112833333Y-100028847D02*
X112738095Y-99981228D01*
X112738095Y-99981228D02*
X112547619Y-99933609D01*
X112547619Y-99933609D02*
X112452381Y-99885990D01*
X112452381Y-99885990D02*
X112404762Y-99838371D01*
X112404762Y-99838371D02*
X112357143Y-99743133D01*
X112357143Y-99743133D02*
X112357143Y-99647895D01*
X112357143Y-99647895D02*
X112404762Y-99552657D01*
X112404762Y-99552657D02*
X112452381Y-99505038D01*
X112452381Y-99505038D02*
X112547619Y-99457419D01*
X112547619Y-99457419D02*
X112785714Y-99457419D01*
X112785714Y-99457419D02*
X112928571Y-99505038D01*
X113261905Y-99457419D02*
X113500000Y-100457419D01*
X113500000Y-100457419D02*
X113690476Y-99743133D01*
X113690476Y-99743133D02*
X113880952Y-100457419D01*
X113880952Y-100457419D02*
X114119048Y-99457419D01*
X114261905Y-100552657D02*
X115023809Y-100552657D01*
X115214286Y-100171704D02*
X115690476Y-100171704D01*
X115119048Y-100457419D02*
X115452381Y-99457419D01*
X115452381Y-99457419D02*
X115785714Y-100457419D01*
X116690476Y-100362180D02*
X116642857Y-100409800D01*
X116642857Y-100409800D02*
X116500000Y-100457419D01*
X116500000Y-100457419D02*
X116404762Y-100457419D01*
X116404762Y-100457419D02*
X116261905Y-100409800D01*
X116261905Y-100409800D02*
X116166667Y-100314561D01*
X116166667Y-100314561D02*
X116119048Y-100219323D01*
X116119048Y-100219323D02*
X116071429Y-100028847D01*
X116071429Y-100028847D02*
X116071429Y-99885990D01*
X116071429Y-99885990D02*
X116119048Y-99695514D01*
X116119048Y-99695514D02*
X116166667Y-99600276D01*
X116166667Y-99600276D02*
X116261905Y-99505038D01*
X116261905Y-99505038D02*
X116404762Y-99457419D01*
X116404762Y-99457419D02*
X116500000Y-99457419D01*
X116500000Y-99457419D02*
X116642857Y-99505038D01*
X116642857Y-99505038D02*
X116690476Y-99552657D01*
X117690476Y-100362180D02*
X117642857Y-100409800D01*
X117642857Y-100409800D02*
X117500000Y-100457419D01*
X117500000Y-100457419D02*
X117404762Y-100457419D01*
X117404762Y-100457419D02*
X117261905Y-100409800D01*
X117261905Y-100409800D02*
X117166667Y-100314561D01*
X117166667Y-100314561D02*
X117119048Y-100219323D01*
X117119048Y-100219323D02*
X117071429Y-100028847D01*
X117071429Y-100028847D02*
X117071429Y-99885990D01*
X117071429Y-99885990D02*
X117119048Y-99695514D01*
X117119048Y-99695514D02*
X117166667Y-99600276D01*
X117166667Y-99600276D02*
X117261905Y-99505038D01*
X117261905Y-99505038D02*
X117404762Y-99457419D01*
X117404762Y-99457419D02*
X117500000Y-99457419D01*
X117500000Y-99457419D02*
X117642857Y-99505038D01*
X117642857Y-99505038D02*
X117690476Y-99552657D01*
X118642857Y-100457419D02*
X118071429Y-100457419D01*
X118357143Y-100457419D02*
X118357143Y-99457419D01*
X118357143Y-99457419D02*
X118261905Y-99600276D01*
X118261905Y-99600276D02*
X118166667Y-99695514D01*
X118166667Y-99695514D02*
X118071429Y-99743133D01*
D12*
%TO.C,R4*%
X96360436Y-107265000D02*
X96814564Y-107265000D01*
X96360436Y-108735000D02*
X96814564Y-108735000D01*
%TO.C,R3*%
X99185436Y-91765000D02*
X99639564Y-91765000D01*
X99185436Y-93235000D02*
X99639564Y-93235000D01*
%TO.C,R2*%
X114360436Y-91765000D02*
X114814564Y-91765000D01*
X114360436Y-93235000D02*
X114814564Y-93235000D01*
%TO.C,R1*%
X114360436Y-107265000D02*
X114814564Y-107265000D01*
X114360436Y-108735000D02*
X114814564Y-108735000D01*
%TO.C,SW_PFL1*%
D10*
X94000000Y-94000000D02*
X106000000Y-94000000D01*
X106000000Y-106000000D01*
X94000000Y-106000000D01*
X94000000Y-94000000D01*
D13*
X96596000Y-96444000D02*
G75*
G02*
X96292000Y-96444000I-152000J0D01*
G01*
X96292000Y-96444000D02*
G75*
G02*
X96596000Y-96444000I152000J0D01*
G01*
%TO.C,SW_CUT1*%
D10*
X109500000Y-109500000D02*
X121500000Y-109500000D01*
X121500000Y-121500000D01*
X109500000Y-121500000D01*
X109500000Y-109500000D01*
D13*
X112096000Y-111944000D02*
G75*
G02*
X111792000Y-111944000I-152000J0D01*
G01*
X111792000Y-111944000D02*
G75*
G02*
X112096000Y-111944000I152000J0D01*
G01*
%TO.C,SW_AFL1*%
D10*
X94000000Y-109500000D02*
X106000000Y-109500000D01*
X106000000Y-121500000D01*
X94000000Y-121500000D01*
X94000000Y-109500000D01*
D13*
X96596000Y-111944000D02*
G75*
G02*
X96292000Y-111944000I-152000J0D01*
G01*
X96292000Y-111944000D02*
G75*
G02*
X96596000Y-111944000I152000J0D01*
G01*
%TO.C,SW_ACC1*%
X112096000Y-96444000D02*
G75*
G02*
X111792000Y-96444000I-152000J0D01*
G01*
X111792000Y-96444000D02*
G75*
G02*
X112096000Y-96444000I152000J0D01*
G01*
D10*
X109500000Y-94000000D02*
X121500000Y-94000000D01*
X121500000Y-106000000D01*
X109500000Y-106000000D01*
X109500000Y-94000000D01*
%TD*%
M02*
