M48
; DRILL file {KiCad 9.0.6} date 2026-03-31T10:44:37+0100
; FORMAT={-:-/ absolute / metric / decimal}
; #@! TF.CreationDate,2026-03-31T10:44:37+01:00
; #@! TF.GenerationSoftware,Kicad,Pcbnew,9.0.6
; #@! TF.FileFunction,Plated,1,2,PTH
FMAT,2
METRIC
; #@! TA.AperFunction,Plated,PTH,ComponentDrill
T1C0.750
; #@! TA.AperFunction,Plated,PTH,ComponentDrill
T2C1.000
%
G90
G05
T1
X107.897Y-98.855
X107.897Y-100.855
X107.897Y-102.855
X107.897Y-104.855
X107.897Y-106.855
X107.897Y-108.855
X107.897Y-110.855
X107.897Y-112.855
X107.897Y-114.855
X107.897Y-116.855
T2
X97.46Y-94.92
X97.46Y-105.08
X97.46Y-110.42
X97.46Y-120.58
X100.0Y-94.92
X100.0Y-105.08
X100.0Y-110.42
X100.0Y-120.58
X102.54Y-94.92
X102.54Y-105.08
X102.54Y-110.42
X102.54Y-120.58
X112.96Y-94.92
X112.96Y-105.08
X112.96Y-110.42
X112.96Y-120.58
X115.5Y-94.92
X115.5Y-105.08
X115.5Y-110.42
X115.5Y-120.58
X118.04Y-94.92
X118.04Y-105.08
X118.04Y-110.42
X118.04Y-120.58
M30
